<?xml version="1.0" encoding="utf-8"?>
<!-- Generator: Adobe Illustrator 24.3.0, SVG Export Plug-In . SVG Version: 6.00 Build 0)  -->
<svg version="1.1" id="Layer_1" xmlns="http://www.w3.org/2000/svg" xmlns:xlink="http://www.w3.org/1999/xlink" x="0px" y="0px"
	 viewBox="0 0 500 500" style="enable-background:new 0 0 500 500;" xml:space="preserve">
<style type="text/css">
	.st0{fill:#666666;}
</style>
<g>
	<path class="st0" d="M420.4,380.2c-0.2-3.2-1.6-6.3-4.2-8.9l-55-53.3V225c0.4-3.8,0.6-7.7,0.6-11.6c0-59.2-45-107.9-102.7-113.8
		v-7.9c0-6.4-5.2-11.7-11.7-11.7s-11.7,5.2-11.7,11.7v7.9C178,105.4,133,154.1,133,213.3c0,3.9,0.2,7.8,0.6,11.6v92.3l-55.8,54
		c-2.7,2.6-4,5.7-4.2,8.9h0v15.2h14h19.8h279.2h19.8h14L420.4,380.2L420.4,380.2z"/>
	<path class="st0" d="M228.1,402.3c0.7,9.9,8.8,17.7,18.9,17.7c10,0,18.2-7.8,18.9-17.7H228.1z"/>
</g>
</svg>
